<?xml version="1.0" standalone="no"?>
<!DOCTYPE svg PUBLIC "-//W3C//DTD SVG 1.1//EN" "http://www.w3.org/Graphics/SVG/1.1/DTD/svg11.dtd" >
<svg xmlns="http://www.w3.org/2000/svg">
<defs>
  <font id="growthy-map-icons" horiz-adv-x="600">
    <font-face font-family="growthy-map-icons"
      units-per-em="600" ascent="600"
      descent="0" />
    <missing-glyph horiz-adv-x="0" />
    <glyph glyph-name="002-announcement"
      unicode="&#xE001;"
      horiz-adv-x="600" d="M325 225H275V275H325V225zM325 325H275V475H325V325zM500 550H100C72.5 550 50.25 527.5 50.25 500L50 50L150 150H500C527.5 150 550 172.5 550 200V500C550 527.5 527.5 550 500 550z" />
    <glyph glyph-name="003-arrow_back"
      unicode="&#xE002;"
      horiz-adv-x="600" d="M500 325L195.75 325L335.5 464.75L300 500L100 300L300 100L335.25 135.25L195.75 275L500 275z" />
    <glyph glyph-name="004-arrow_circle_drop_down"
      unicode="&#xE003;"
      horiz-adv-x="600" d="M200 350L300 225L400 350H200zM300 100C189.5 100 100 189.5 100 300S189.5 500 300 500S500 410.5 500 300S410.5 100 300 100zM300 550C162 550 50 438 50 300S162 50 300 50S550 162 550 300S438 550 300 550z" />
    <glyph glyph-name="005-arrow_circle_drop_right"
      unicode="&#xE004;"
      horiz-adv-x="600" d="M250 200L375 300L250 400V200zM500 300C500 189.5 410.5 100 300 100S100 189.5 100 300S189.5 500 300 500S500 410.5 500 300zM50 300C50 162 162 50 300 50S550 162 550 300S438 550 300 550S50 438 50 300z" />
    <glyph glyph-name="006-arrow_drop_down"
      unicode="&#xE005;"
      horiz-adv-x="600" d="M175 350L300 225L425 350z" />
    <glyph glyph-name="007-arrow_drop_up"
      unicode="&#xE006;"
      horiz-adv-x="600" d="M175 238L300 363L425 238z" />
    <glyph glyph-name="008-camera_alt"
      unicode="&#xE007;"
      horiz-adv-x="600" d="M300 220C344.183 220 380 255.817 380 300S344.183 380 300 380S220 344.183 220 300S255.817 220 300 220zM300 175C231 175 175 231 175 300S231 425 300 425S425 369 425 300S369 175 300 175zM225 550L179.25 500H100C72.5 500 50 477.5 50 450V150C50 122.5 72.5 100 100 100H500C527.5 100 550 122.5 550 150V450C550 477.5 527.5 500 500 500H420.75L375 550H225z" />
    <glyph glyph-name="009-chech_box_outline_blaank"
      unicode="&#xE008;"
      horiz-adv-x="600" d="M475 525H125C97.5 525 75 502.5 75 475V125C75 97.5 97.5 75 125 75H475C502.5 75 525 97.5 525 125V475C525 502.5 502.5 525 475 525zM475 475V125H125V475H475z" />
    <glyph glyph-name="010-check_box"
      unicode="&#xE009;"
      horiz-adv-x="600" d="M250 175L125 300L160.25 335.25L250 245.75L439.75 435.5L475 400L250 175zM475 525H125C97.25 525 75 502.5 75 475V125C75 97.5 97.25 75 125 75H475C502.75 75 525 97.5 525 125V475C525 502.5 502.75 525 475 525z" />
    <glyph glyph-name="011-chevron_down"
      unicode="&#xE00A;"
      horiz-adv-x="600" d="M442.625 357.375L407.375 392.625L292.625 278.125L177.875 392.625L142.625 357.375L292.625 207.375z" />
    <glyph glyph-name="012-chevron_left"
      unicode="&#xE00B;"
      horiz-adv-x="600" d="M385.25 414.75L350 450L200 300L350 150L385.25 185.25L270.75 300z" />
    <glyph glyph-name="013-chevron_right"
      unicode="&#xE00C;"
      horiz-adv-x="600" d="M250 450L214.75 414.75L329.25 300L214.75 185.25L250 150L400 300z" />
    <glyph glyph-name="014-close"
      unicode="&#xE00D;"
      horiz-adv-x="600" d="M475 439.75L439.75 475L300 335.25L160.25 475L125 439.75L264.75 300L125 160.25L160.25 125L300 264.75L439.75 125L475 160.25L335.25 300z" />
    <glyph glyph-name="015-code"
      unicode="&#xE00E;"
      horiz-adv-x="600" d="M365 185L480 300L365 415L400 450L550 300L400 150L365 185zM235 185L120 300L235 415L200 450L50 300L200 150L235 185z" />
    <glyph glyph-name="016-column"
      unicode="&#xE00F;"
      horiz-adv-x="600" d="M400 450V150H525V450H400zM100 150H225V450H100V150zM250 150H375V450H250V150z" />
    <glyph glyph-name="017-control_point"
      unicode="&#xE010;"
      horiz-adv-x="600" d="M300 100C189.75 100 100 189.75 100 300S189.75 500 300 500S500 410.25 500 300S410.25 100 300 100zM300 550C162.25 550 50 437.75 50 300S162.25 50 300 50S550 162.25 550 300S437.75 550 300 550zM325 425H275V325H175V275H275V175H325V275H425V325H325V425z" />
    <glyph glyph-name="018-date_range"
      unicode="&#xE011;"
      horiz-adv-x="600" d="M475 100H125V375H475V100zM475 500H450V550H400V500H200V550H150V500H125C97.25 500 75.25 477.5 75.25 450L75 100C75 72.5 97.25 50 125 50H475C502.5 50 525 72.5 525 100V450C525 477.5 502.5 500 475 500z" />
    <glyph glyph-name="019-delete_list"
      unicode="&#xE012;"
      horiz-adv-x="600" d="M300 100C189.75 100 100 189.75 100 300S189.75 500 300 500S500 410.25 500 300S410.25 100 300 100zM300 550C162 550 50 438 50 300S162 50 300 50S550 162 550 300S438 550 300 550zM175 325V275H425V325H175z" />
    <glyph glyph-name="020-deploy"
      unicode="&#xE013;"
      horiz-adv-x="600" d="M54.469 54.418C113.223 42.639 160.212 54.418 195.459 89.706L177.86 107.3250000000001C154.328 83.7410000000001 121.972 75.032 80.742 81.1710000000001C76.23 121.001 85.204 153.1450000000001 107.664 177.5770000000001L89.716 195.5700000000001C54.369 160.208 42.604 113.115 54.469 54.418zM368.298 456.706C343.9 432.307 343.9 392.719 368.298 368.299C392.717 343.9 432.283 343.9 456.701 368.299C481.099 392.719 481.099 432.307 456.701 456.706C444.492 468.916 428.491 475 412.49 475C396.509 475 380.508 468.916 368.298 456.706zM203.547 344.107C247.794 417.966 290.126 471.73 330.567 505.403C366.288 535.126 422.824 550 500.149 550C515.38 550 531.408 549.426 548.259 548.278C555.288 445.857 541.03 373.21 505.408 330.335C481.629 301.714 427.7800000000001 261.605 343.8630000000001 210.001V132.345L273.3430000000001 97.057L245.7960000000001 152.215C229.9240000000001 143.189 213.3610000000001 133.899 196.1080000000001 124.345L124.8150000000001 195.72C133.3100000000001 213.473 141.7410000000001 230.554 150.1070000000001 246.963L97.0660000000001 273.505L132.3390000000001 344.107H203.547z" />
    <glyph glyph-name="021-done"
      unicode="&#xE014;"
      horiz-adv-x="600" d="M225 195L120 300L85 265L225 125L525 425L490 460z" />
    <glyph glyph-name="022-double_chevron_left"
      unicode="&#xE015;"
      horiz-adv-x="600" d="M475 414.75L360.5 300L475 185.25L439.75 150L289.75 300L439.75 450L475 414.75zM310.25 414.75L195.75 300L310.25 185.25L275 150L125 300L275 450L310.25 414.75z" />
    <glyph glyph-name="023-double_chevron_right"
      unicode="&#xE016;"
      horiz-adv-x="600" d="M160.25 450L310.25 300L160.25 150L125 185.25L239.5 300L125 414.75L160.25 450zM325 450L475 300L325 150L289.75 185.25L404.25 300L289.75 414.75L325 450z" />
    <glyph glyph-name="024-"
      unicode="&#xE017;"
      horiz-adv-x="600" d="M425 125H225V400H425V125zM435 450H215C193 450 175 431.25 175 408.333V116.6660000000001C175 93.75 193 75 215 75H435C457 75 475 93.75 475 116.667V408.333C475 431.25 457 450 435 450zM375 525H139.286C117.679 525 100 506.719 100 484.375V200H139.286V484.375H375V525z" />
    <glyph glyph-name="025-file_download"
      unicode="&#xE018;"
      horiz-adv-x="600" d="M125 150V100H475V150H125zM475 350H375V500H225V350H125L300 175L475 350z" />
    <glyph glyph-name="026-file_excel"
      unicode="&#xE019;"
      horiz-adv-x="600" d="M325 350L300 300L275 350H225L275 262.5L225 175H275L300 225L325 175H374.962L325 262.5L374.962 350H325zM149.992 100.035V500H350V424.931C350 411.945 362.012 400 375 400H450V100.035H149.992zM424.316 449.927H400V474.229L424.316 449.927zM486.231 454.316L404.2970000000001 536.234C395.508 545.02 383.594 550 371.191 550H146.875C120.996 549.902 100 528.91 100 503.036V100.035C100 74.161 124.113 50 149.992 50H450C475.879 50 500 70.992 500 96.866V421.1190000000001C500 433.519 495.019 445.528 486.231 454.316z" />
    <glyph glyph-name="027-first_page"
      unicode="&#xE01A;"
      horiz-adv-x="600" d="M150 450H200V150H150V450zM460.25 185.25L345.5 300L460.25 414.75L425 450L275 300L425 150L460.25 185.25z" />
    <glyph glyph-name="028-flight"
      unicode="&#xE01B;"
      horiz-adv-x="600" d="M525 200V250L325 375V512.5C325 533.25 308.25 550 287.5 550S250 533.25 250 512.5V375L50 250V200L250 262.5V125L200 87.5V50L287.5 75L375 50V87.5L325 125V262.5L525 200z" />
    <glyph glyph-name="029-group"
      unicode="&#xE01C;"
      horiz-adv-x="600" d="M400 275C392.75 275 384.5 274.5 375.75 273.75C404.75 252.75 425 224.5 425 187.5V125H575V187.5C575 245.75 458.25 275 400 275zM200 275C141.75 275 25 245.75 25 187.5V125H375V187.5C375 245.75 258.25 275 200 275zM200 325C241.5 325 274.75 358.5 274.75 400S241.5 475 200 475S125 441.5 125 400S158.5 325 200 325zM400 325C441.5 325 474.75 358.5 474.75 400S441.5 475 400 475S325 441.5 325 400S358.5 325 400 325z" />
    <glyph glyph-name="030-help"
      unicode="&#xE01D;"
      horiz-adv-x="600" d="M376.75 318.75L354.25 295.75C336.25 277.5 325 262.5 325 225H275V237.5C275 265 286.25 290 304.25 308.25L335.25 339.75C344.5 348.75 350 361.25 350 375C350 402.5 327.5 425 300 425S250 402.5 250 375H200C200 430.25 244.75 475 300 475S400 430.25 400 375C400 353 391 333 376.75 318.75zM325 125H275V175H325V125zM300 550C162 550 50 438 50 300S162 50 300 50S550 162 550 300S438 550 300 550z" />
    <glyph glyph-name="031-history"
      unicode="&#xE01E;"
      horiz-adv-x="600" d="M300 400V275L407 211.5L425 241.75L337.5 293.75V400H300zM325 525C200.75 525 100 424.25 100 300H25L122.25 202.75L124 199.25L225 300H150C150 396.75 228.25 475 325 475S500 396.75 500 300S421.75 125 325 125C276.75 125 233 144.75 201.5 176.5L166 141C206.75 100.25 262.75 75 325 75C449.25 75 550 175.75 550 300S449.25 525 325 525z" />
    <glyph glyph-name="032-info_outline"
      unicode="&#xE01F;"
      horiz-adv-x="600" d="M275 375H325V425H275V375zM300 100C189.75 100 100 189.75 100 300S189.75 500 300 500S500 410.25 500 300S410.25 100 300 100zM300 550C162 550 50 438 50 300S162 50 300 50S550 162 550 300S438 550 300 550zM275 175H325V325H275V175z" />
    <glyph glyph-name="033-info"
      unicode="&#xE020;"
      horiz-adv-x="600" d="M325 225H275V175H325V225zM325 425H275V275H325V425zM300 50C162 50 50 162 50 300S162 550 300 550S550 438 550 300S438 50 300 50z" />
    <glyph glyph-name="034-last_page"
      unicode="&#xE021;"
      horiz-adv-x="600" d="M400 450H450V150H400V450zM139.75 414.75L254.5 300L139.75 185.25L175 150L325 300L175 450L139.75 414.75z" />
    <glyph glyph-name="035-library_books"
      unicode="&#xE022;"
      horiz-adv-x="600" d="M475 425H225V475H475V425zM375 225H225V275H375V225zM475 325H225V375H475V325zM500 550H200C172.5 550 150 527.5 150 500V200C150 172.5 172.5 150 200 150H500C527.5 150 550 172.5 550 200V500C550 527.5 527.5 550 500 550zM100 450H50V100C50 72.5 72.5 50 100 50H450V100H100V450z" />
    <glyph glyph-name="036-link"
      unicode="&#xE023;"
      horiz-adv-x="600" d="M425 425H325V377.5H425C467.75 377.5 502.5 342.75 502.5 300S467.75 222.5 425 222.5H325V175H425C494 175 550 231 550 300S494 425 425 425zM200 275H400V325H200V275zM97.5 300C97.5 342.75 132.25 377.5 175 377.5H275V425H175C106 425 50 369 50 300S106 175 175 175H275V222.5H175C132.25 222.5 97.5 257.25 97.5 300z" />
    <glyph glyph-name="037-local_library"
      unicode="&#xE024;"
      horiz-adv-x="600" d="M300 400C341.5 400 375 433.5 375 475S341.5 550 300 550S225 516.5 225 475S258.5 400 300 400zM300 311.25C241 366.25 162 400 75 400V125C162 125 241 91.25 300 36.25C359 91 438 125 525 125V400C438 400 359 366.25 300 311.25z" />
    <glyph glyph-name="038-lock"
      unicode="&#xE025;"
      horiz-adv-x="600" d="M377.5 400H222.5V450C222.5 492.75 257.25 527.5 300 527.5S377.5 492.75 377.5 450V400zM300 175C272.5 175 250 197.5 250 225S272.5 275 300 275S350 252.5 350 225S327.5 175 300 175zM450 400H425V450C425 519 369 575 300 575S175 519 175 450V400H150C122.5 400 100 377.5 100 350V100C100 72.5 122.5 50 150 50H450C477.5 50 500 72.5 500 100V350C500 377.5 477.5 400 450 400z" />
    <glyph glyph-name="039-menuediting"
      unicode="&#xE026;"
      horiz-adv-x="600" d="M400 75L525 162.5L400 250V75zM125 175H325V225H125V175zM425 475H125V425H425V475zM425 350H125V300H425V350z" />
    <glyph glyph-name="040-mode_edit"
      unicode="&#xE027;"
      horiz-adv-x="600" d="M517.75 424C527.5 433.75 527.5 449.5 517.75 459.25L459.25 517.75C449.5 527.5 433.75 527.5 424 517.75L378.25 472L472 378.25L517.75 424zM75 168.75V75H168.75L445.25 351.5L351.5 445.25L75 168.75z" />
    <glyph glyph-name="041-more_vert"
      unicode="&#xE028;"
      horiz-adv-x="600" d="M300 200C272.5 200 250 177.5 250 150S272.5 100 300 100S350 122.5 350 150S327.5 200 300 200zM300 350C272.5 350 250 327.5 250 300S272.5 250 300 250S350 272.5 350 300S327.5 350 300 350zM300 400C327.5 400 350 422.5 350 450S327.5 500 300 500S250 477.5 250 450S272.5 400 300 400z" />
    <glyph glyph-name="042-open_in_new"
      unicode="&#xE029;"
      horiz-adv-x="600" d="M350 525V475H439.75L194 229.25L229.25 194L475 439.75V350H525V525H350zM475 125H125V475H300V525H125C97.25 525 75 502.5 75 475V125C75 97.5 97.25 75 125 75H475C502.5 75 525 97.5 525 125V300H475V125z" />
    <glyph glyph-name="043-query_builder"
      unicode="&#xE02A;"
      horiz-adv-x="600" d="M312.5 425H275V275L406.25 196.25L425 227L312.5 293.75V425zM300 100C189.5 100 100 189.5 100 300S189.5 500 300 500S500 410.5 500 300S410.5 100 300 100zM299.75 550C161.75 550 50 438 50 300S161.75 50 299.75 50C438 50 550 162 550 300S438 550 299.75 550z" />
    <glyph glyph-name="044-radio_button_checked"
      unicode="&#xE02B;"
      horiz-adv-x="600" d="M300 100C189.5 100 100 189.5 100 300S189.5 500 300 500S500 410.5 500 300S410.5 100 300 100zM300 550C162 550 50 438 50 300S162 50 300 50S550 162 550 300S438 550 300 550zM300 425C231 425 175 369 175 300S231 175 300 175S425 231 425 300S369 425 300 425z" />
    <glyph glyph-name="045-radio_button_unchecked"
      unicode="&#xE02C;"
      horiz-adv-x="600" d="M300 100C189.5 100 100 189.5 100 300S189.5 500 300 500S500 410.5 500 300S410.5 100 300 100zM300 550C162 550 50 438 50 300S162 50 300 50S550 162 550 300S438 550 300 550z" />
    <glyph glyph-name="046-reference_event"
      unicode="&#xE02D;"
      horiz-adv-x="600" d="M175 425C161.193 425 150 436.193 150 450S161.193 475 175 475S200 463.807 200 450S188.807 425 175 425zM245.732 475C235.436 504.13 207.655 525 175 525C133.579 525 100 491.421 100 450S133.579 375 175 375C207.655 375 235.436 395.87 245.732 425H431.25C458.75 425 481.25 402.5 481.25 375S458.75 325 431.25 325H425H200C144.75 325 100 280.25 100 225S144.75 125 200 125H450V75L525 150L450 225V175H193.75C166.25 175 143.75 197.5 143.75 225S166.25 275 193.75 275H425C480.25 275 525 319.75 525 375S480.25 475 425 475H245.732z" />
    <glyph glyph-name="047-"
      unicode="&#xE02E;"
      horiz-adv-x="600" d="M450 175C463.807 175 475 163.807 475 150S463.807 125 450 125S425 136.193 425 150S436.193 175 450 175zM379.268 125C389.564 95.87 417.345 75 450 75C491.421 75 525 108.579 525 150S491.421 225 450 225C417.3450000000001 225 389.563 204.13 379.2680000000001 175H193.75C166.25 175 143.75 197.5 143.75 225S166.25 275 193.75 275H200H425C480.25 275 525 319.75 525 375S480.25 475 425 475H175V525L100 450L175 375V425H431.25C458.75 425 481.25 402.5 481.25 375S458.75 325 431.25 325H200C144.75 325 100 280.25 100 225S144.75 125 200 125H379.268z" />
    <glyph glyph-name="048-reference"
      unicode="&#xE02F;"
      horiz-adv-x="600" d="M525 375L425.25 475V400H250V350H425.25V275L525 375zM174.75 325L75 225L174.75 125V200H350V250H174.75V325z" />
    <glyph glyph-name="049-refresh"
      unicode="&#xE030;"
      horiz-adv-x="600" d="M441.25 441.25C405 477.5 355.25 500 300 500C189.5 500 100.25 410.5 100.25 300S189.5 100 300 100C393.25 100 471 163.75 493.25 250H441.25C420.75 191.75 365.25 150 300 150C217.25 150 150 217.25 150 300S217.25 450 300 450C341.5 450 378.5 432.75 405.5 405.5L325 325H500V500L441.25 441.25z" />
    <glyph glyph-name="050-round_cancel"
      unicode="&#xE031;"
      horiz-adv-x="600" d="M425 213.698L389.75 178.448L300 268.198L210.25 178.448L175 213.698L264.75 303.448L175 393.198L210.25 428.448L300 338.698L389.75 428.448L425 393.198L335.25 303.448L425 213.698zM300 553.448C161.75 553.448 50 441.698 50 303.448S161.75 53.448 300 53.448S550 165.198 550 303.448S438.25 553.448 300 553.448z" />
    <glyph glyph-name="051-round_outline_cancel"
      unicode="&#xE032;"
      horiz-adv-x="600" d="M300 100C189.75 100 100 189.75 100 300S189.75 500 300 500S500 410.25 500 300S410.25 100 300 100zM300 550C161.75 550 50 438.25 50 300S161.75 50 300 50S550 161.75 550 300S438.25 550 300 550zM364.75 400L300 335.25L235.25 400L200 364.75L264.75 300L200 235.25L235.25 200L300 264.75L364.75 200L400 235.25L335.25 300L400 364.75L364.75 400z" />
    <glyph glyph-name="052-round_outline_check"
      unicode="&#xE033;"
      horiz-adv-x="600" d="M400 400L437.5 362.5L262.75 187.5L150 300L187.5 337.5L262.75 262.5L400 400zM100 300C100 410.25 189.75 500 300 500S500 410.25 500 300S410.25 100 300 100S100 189.75 100 300zM300 550C161.75 550 50 438.25 50 300S161.75 50 300 50S550 161.75 550 300S438.25 550 300 550z" />
    <glyph glyph-name="053-save"
      unicode="&#xE034;"
      horiz-adv-x="600" d="M375 375H125V475H375V375zM300 125C258.5 125 225 158.5 225 200S258.5 275 300 275S375 241.5 375 200S341.5 125 300 125zM425 525H125C97.25 525 75 502.5 75 475V125C75 97.5 97.25 75 125 75H475C502.5 75 525 97.5 525 125V425L425 525z" />
    <glyph glyph-name="054-search"
      unicode="&#xE035;"
      horiz-adv-x="600" d="M237.5 250C175.25 250 125 300.25 125 362.5S175.25 475 237.5 475S350 424.75 350 362.5S299.75 250 237.5 250zM387.5 250H367.75L360.75 256.75C385.25 285.25 400 322.25 400 362.5C400 452.25 327.25 525 237.5 525S75 452.25 75 362.5S147.75 200 237.5 200C277.75 200 314.75 214.75 343.25 239.25L350 232.25V212.5L475 87.75L512.25 125L387.5 250z" />
    <glyph glyph-name="055-settings"
      unicode="&#xE036;"
      horiz-adv-x="600" d="M300 212.5C251.75 212.5 212.5 251.75 212.5 300S251.75 387.5 300 387.5S387.5 348.25 387.5 300S348.25 212.5 300 212.5zM485.75 275.5C486.75 283.5 487.5 291.5 487.5 300S486.75 316.5 485.75 324.5L538.5 365.75C543.25 369.5 544.5 376.25 541.5 381.75L491.5 468.25C488.5 473.75 481.75 475.75 476.25 473.75L414 448.75C401 458.75 387 467 371.75 473.25L362.25 539.5C361.5 545.5 356.25 550 350 550H250C243.75 550 238.5 545.5 237.75 539.5L228.25 473.25C213 467 199 458.5 186 448.75L123.75 473.75C118 476 111.5 473.75 108.5 468.25L58.5 381.75C55.25 376.25 56.75 369.5 61.5 365.75L114.25 324.5C113.25 316.5 112.5 308.25 112.5 300S113.25 283.5 114.25 275.5L61.5 234.25C56.75 230.5 55.5 223.75 58.5 218.25L108.5 131.75C111.5 126.25 118.25 124.25 123.75 126.25L186 151.25C199 141.25 213 133 228.25 126.75L237.75 60.5C238.5 54.5 243.75 50 250 50H350C356.25 50 361.5 54.5 362.25 60.5L371.75 126.75C387 133 401 141.5 414 151.25L476.25 126.25C482 124 488.5 126.25 491.5 131.75L541.5 218.25C544.5 223.75 543.25 230.5 538.5 234.25L485.75 275.5z" />
    <glyph glyph-name="056-shopping_cart"
      unicode="&#xE037;"
      horiz-adv-x="600" d="M425 150C397.5 150 375.25 127.5 375.25 100S397.5 50 425 50S475 72.5 475 100S452.5 150 425 150zM25 550V500H75L165 310.25L131.25 249C127.25 242 125 233.75 125 225C125 197.5 147.5 175 175 175H475V225H185.5C182 225 179.25 227.75 179.25 231.25L180 234.25L202.5 275H388.75C407.5 275 424 285.25 432.5 300.75L522 463C524 466.5 525 470.75 525 475C525 488.75 513.75 500 500 500H130.25L106.75 550H25zM175 150C147.5 150 125.25 127.5 125.25 100S147.5 50 175 50S225 72.5 225 100S202.5 150 175 150z" />
    <glyph glyph-name="057-trending_up"
      unicode="&#xE038;"
      horiz-adv-x="600" d="M400 450L457.25 392.75L335.25 270.75L235.25 370.75L50 185.25L85.25 150L235.25 300L335.25 200L492.75 357.25L550 300L550 450z" />
    <glyph glyph-name="058-undeploy"
      unicode="&#xE039;"
      horiz-adv-x="600" d="M545.531 545.582C486.7769999999999 557.361 439.788 545.582 404.541 510.294L422.14 492.675C445.671 516.259 478.0279999999999 524.9680000000001 519.2579999999999 518.829C523.7699999999999 478.999 514.7959999999999 446.855 492.3359999999999 422.423L510.2839999999999 404.43C545.63 439.7920000000001 557.396 486.885 545.531 545.582zM231.702 143.294C256.1 167.693 256.1 207.281 231.702 231.701C207.283 256.1 167.718 256.1 143.299 231.701C118.901 207.281 118.901 167.693 143.299 143.294C155.508 131.084 171.509 125 187.51 125C203.491 125 219.492 131.084 231.702 143.294zM396.453 255.893C352.206 182.034 309.874 128.271 269.433 94.597C233.712 64.874 177.176 50 99.851 50C84.62 50 68.592 50.574 51.741 51.722C44.711 154.143 58.97 226.79 94.592 269.665C118.371 298.286 172.219 338.395 256.137 389.999V467.655L326.657 502.943L354.205 447.784C370.077 456.8099999999999 386.64 466.1 403.893 475.654L475.186 404.279C466.691 386.526 458.26 369.445 449.894 353.036L502.936 326.494L467.663 255.892H396.453z" />
    <glyph glyph-name="059-videogame_asset"
      unicode="&#xE03A;"
      horiz-adv-x="600" d="M487.5 300C466.75 300 450 316.75 450 337.5S466.75 375 487.5 375S525 358.25 525 337.5S508.25 300 487.5 300zM387.5 225C366.75 225 350 241.75 350 262.5S366.75 300 387.5 300S425 283.25 425 262.5S408.25 225 387.5 225zM275 275H200V200H150V275H75V325H150V400H200V325H275V275zM525 450H75C47.5 450 25 427.5 25 400V200C25 172.5 47.5 150 75 150H525C552.5 150 575 172.5 575 200V400C575 427.5 552.5 450 525 450z" />
    <glyph glyph-name="060-add"
      unicode="&#xE03B;"
      horiz-adv-x="600" d="M475 275L325 275L325 125L275 125L275 275L125 275L125 325L275 325L275 475L325 475L325 325L475 325z" />
    <glyph glyph-name="061-arrow_forward"
      unicode="&#xE03C;"
      horiz-adv-x="600" d="M300 500L264.75 464.75L404.25 325L100 325L100 275L404.25 275L264.75 135.25L300 100L500 300z" />
    <glyph glyph-name="062-delete"
      unicode="&#xE03D;"
      horiz-adv-x="600" d="M387.5 475L362.5 525H237.5L212.5 475H125V425H475V475H387.5zM212.5 290.049L247.401 325L300.124 272.451L352.599 325L387.5 290.049L335.025 237.5L387.5 184.95L352.599 150L300.124 202.55L247.649 150L212.748 184.95L265.223 237.5L212.5 290.049zM200 75H400C427.5 75 450 97.5 450 125V400H150V125C150 97.5 172.5 75 200 75z" />
    <glyph glyph-name="063-filter"
      unicode="&#xE03E;"
      horiz-adv-x="600" d="M450 500H150L275 325V112.5L325 137.5V325L450 500zM550 550L375.073 300V100L225 22.222V300L50 550H550z" />
    <glyph glyph-name="064-folder_open"
      unicode="&#xE03F;"
      horiz-adv-x="600" d="M500 150H100V400H500V150zM500 450H300L250 500H100C72.5 500 50.25 477.5 50.25 450L50 150C50 122.5 72.5 100 100 100H500C527.5 100 550 122.5 550 150V400C550 427.5 527.5 450 500 450z" />
    <glyph glyph-name="065-insert_drive_file"
      unicode="&#xE040;"
      horiz-adv-x="600" d="M325 375V512.5L462.5 375H325zM150 550C122.5 550 100.25 527.5 100.25 500L100 100C100 72.5 122.25 50 149.75 50H450C477.5 50 500 72.5 500 100V400L350 550H150z" />
    <glyph glyph-name="066-folder"
      unicode="&#xE041;"
      horiz-adv-x="600" d="M250 500H100C72.5 500 50.25 477.5 50.25 450L50 150C50 122.5 72.5 100 100 100H500C527.5 100 550 122.5 550 150V400C550 427.5 527.5 450 500 450H300L250 500z" />
    <glyph glyph-name="067-add"
      unicode="&#xE042;"
      horiz-adv-x="600" d="M475 275L325 275L325 125L275 125L275 275L125 275L125 325L275 325L275 475L325 475L325 325L475 325z" />
    <glyph glyph-name="068-allmenu"
      unicode="&#xE043;"
      horiz-adv-x="600" d="M400 100H500V200H400V100zM400 250H500V350H400V250zM250 400H350V500H250V400zM400 500V400H500V500H400zM250 250H350V350H250V250zM100 250H200V350H100V250zM100 100H200V200H100V100zM250 100H350V200H250V100zM100 400H200V500H100V400z" />
    <glyph glyph-name="069-arrow_forward"
      unicode="&#xE044;"
      horiz-adv-x="600" d="M300 500L264.75 464.75L404.25 325L100 325L100 275L404.25 275L264.75 135.25L300 100L500 300z" />
    <glyph glyph-name="070-arrow_top"
      unicode="&#xE045;"
      horiz-adv-x="600" d="M100 550H500V500H100V550zM135.25 239.75L100 275L300 475L500 275L464.5 239.5L325 379.25V50H275V379.25L135.25 239.75z" />
    <glyph glyph-name="071-arrow_upward"
      unicode="&#xE046;"
      horiz-adv-x="600" d="M100 300L135.25 264.75L275 404.25L275 100L325 100L325 404.25L464.5 264.5L500 300L300 500z" />
    <glyph glyph-name="072-autorenew"
      unicode="&#xE047;"
      horiz-adv-x="600" d="M469 406.5L432.5 370C443.5 349 450 325.25 450 300C450 217.25 382.75 150 300 150V225L200 125L300 25V100C410.5 100 500 189.5 500 300C500 339.25 488.5 375.75 469 406.5zM300 450V375L400 475L300 575V500C189.5 500 100 410.5 100 300C100 260.75 111.5 224.25 131 193.5L167.5 230C156.25 250.75 150 274.75 150 300C150 382.75 217.25 450 300 450z" />
    <glyph glyph-name="073-chartarea"
      unicode="&#xE048;"
      horiz-adv-x="600" d="M350 325.076L225 500L100 325.076L100 100L500 100L500 425z" />
    <glyph glyph-name="074-chech_box_outline_blaank"
      unicode="&#xE049;"
      horiz-adv-x="600" d="M475 525H125C97.5 525 75 502.5 75 475V125C75 97.5 97.5 75 125 75H475C502.5 75 525 97.5 525 125V475C525 502.5 502.5 525 475 525zM475 475V125H125V475H475z" />
    <glyph glyph-name="075-compare_arrows"
      unicode="&#xE04A;"
      horiz-adv-x="600" d="M325 374.75H250V550H200V374.75H125L225 275L325 374.75zM350 225.25V50H400V225.25H475L375 325L275 225.25H350z" />
    <glyph glyph-name="076-delete"
      unicode="&#xE04B;"
      horiz-adv-x="600" d="M387.5 475L362.5 525H237.5L212.5 475H125V425H475V475H387.5zM212.5 290.049L247.401 325L300.124 272.451L352.599 325L387.5 290.049L335.025 237.5L387.5 184.95L352.599 150L300.124 202.55L247.649 150L212.748 184.95L265.223 237.5L212.5 290.049zM200 75H400C427.5 75 450 97.5 450 125V400H150V125C150 97.5 172.5 75 200 75z" />
    <glyph glyph-name="077-duplicate"
      unicode="&#xE04C;"
      horiz-adv-x="600" d="M425 125H225V400H425V125zM435 450H215C193 450 175 431.25 175 408.333V116.6660000000001C175 93.75 193 75 215 75H435C457 75 475 93.75 475 116.667V408.333C475 431.25 457 450 435 450zM375 525H139.286C117.679 525 100 506.719 100 484.375V200H139.286V484.375H375V525z" />
    <glyph glyph-name="078-equalizer"
      unicode="&#xE04D;"
      horiz-adv-x="600" d="M400 100H500V375H400V100zM200 100V300H100V100H200zM350 100V500H250V100H350z" />
    <glyph glyph-name="079-filter"
      unicode="&#xE04E;"
      horiz-adv-x="600" d="M450 500H150L275 325V112.5L325 137.5V325L450 500zM550 550L375.073 300V100L225 22.222V300L50 550H550z" />
    <glyph glyph-name="080-folder_open"
      unicode="&#xE04F;"
      horiz-adv-x="600" d="M500 150H100V400H500V150zM500 450H300L250 500H100C72.5 500 50.25 477.5 50.25 450L50 150C50 122.5 72.5 100 100 100H500C527.5 100 550 122.5 550 150V400C550 427.5 527.5 450 500 450z" />
    <glyph glyph-name="081-folder"
      unicode="&#xE050;"
      horiz-adv-x="600" d="M250 500H100C72.5 500 50.25 477.5 50.25 450L50 150C50 122.5 72.5 100 100 100H500C527.5 100 550 122.5 550 150V400C550 427.5 527.5 450 500 450H300L250 500z" />
    <glyph glyph-name="082-fullscreen"
      unicode="&#xE051;"
      horiz-adv-x="600" d="M350 500V450H450V350H500V500H375H350zM350 150V100H500V250H450V150H350zM100 350H150V450H250V500H100V375V350zM150 250H100V100H250V150H150V225V250z" />
    <glyph glyph-name="083-info"
      unicode="&#xE052;"
      horiz-adv-x="600" d="M325 375H275V425H325V375zM325 175H275V325H325V175zM300 550C162 550 50 438 50 300S162 50 300 50S550 162 550 300S438 550 300 550z" />
    <glyph glyph-name="084-initialsorting"
      unicode="&#xE053;"
      horiz-adv-x="600" d="M237.5 225H387.5V275H237.5V225zM437.5 375H237.5V325H437.5V375zM328.572 550C192.488 550 82.143 438.0560000000001 82.143 300H0L106.512 191.944L108.429 188.055L219.048 300H136.905C136.905 407.5 222.607 494.445 328.572 494.445C434.536 494.445 520.239 407.5 520.239 300S434.5370000000001 105.556 328.572 105.556C275.727 105.556 227.81 127.5000000000001 193.31 162.778L154.429 123.334C199.06 78.056 260.393 50 328.572 50C464.655 50 575 161.944 575 300S464.655 550 328.572 550z" />
    <glyph glyph-name="085-insert_drive_file"
      unicode="&#xE054;"
      horiz-adv-x="600" d="M325 375V512.5L462.5 375H325zM150 550C122.5 550 100.25 527.5 100.25 500L100 100C100 72.5 122.25 50 149.75 50H450C477.5 50 500 72.5 500 100V400L350 550H150z" />
    <glyph glyph-name="086-key"
      unicode="&#xE055;"
      horiz-adv-x="600" d="M175 250C147.5 250 125 272.5 125 300S147.5 350 175 350S225 327.5 225 300S202.5 250 175 250zM316.25 350C295.75 408.25 240.25 450 175 450C92.25 450 25 382.75 25 300S92.25 150 175 150C240.25 150 295.75 191.75 316.25 250H425V150H525V250H575V350H316.25z" />
    <glyph glyph-name="087-menu"
      unicode="&#xE056;"
      horiz-adv-x="600" d="M75 450V400H525V450H75zM75 275H525V325H75V275zM75 150H525V200H75V150z" />
    <glyph glyph-name="088-menufold"
      unicode="&#xE057;"
      horiz-adv-x="600" d="M450 450H400V150H450V450zM325 414.75L210.25 300L325 185.25L289.75 150L139.75 300L289.75 450L325 414.75z" />
    <glyph glyph-name="089-playlist_add_check"
      unicode="&#xE058;"
      horiz-adv-x="600" d="M537.5 312.5L575 275L400.25 100L287.5 212.5L325 250L400.25 175L537.5 312.5zM50 200H250V250H50V200zM350 450H50V400H350V450zM350 350H50V300H350V350z" />
    <glyph glyph-name="090-reference_master"
      unicode="&#xE059;"
      horiz-adv-x="600" d="M450 175C463.807 175 475 163.807 475 150S463.807 125 450 125S425 136.193 425 150S436.193 175 450 175zM379.268 125C389.564 95.87 417.345 75 450 75C491.421 75 525 108.579 525 150S491.421 225 450 225C417.3450000000001 225 389.563 204.13 379.2680000000001 175H193.75C166.25 175 143.75 197.5 143.75 225S166.25 275 193.75 275H200H425C480.25 275 525 319.75 525 375S480.25 475 425 475H175V525L100 450L175 375V425H431.25C458.75 425 481.25 402.5 481.25 375S458.75 325 431.25 325H200C144.75 325 100 280.25 100 225S144.75 125 200 125H379.268z" />
    <glyph glyph-name="091-select"
      unicode="&#xE05A;"
      horiz-adv-x="600" d="M400 400L437.5 362.5L262.75 187.5L150 300L187.5 337.5L262.75 262.5L400 400zM100 300C100 410.25 189.75 500 300 500S500 410.25 500 300S410.25 100 300 100S100 189.75 100 300zM300 550C161.75 550 50 438.25 50 300S161.75 50 300 50S550 161.75 550 300S438.25 550 300 550z" />
    <glyph glyph-name="092-star"
      unicode="&#xE05B;"
      horiz-adv-x="600" d="M300 168.25L454.5 75L413.5 250.75L550 369L370.25 384.25L300 550L229.75 384.25L50 369L186.5 250.75L145.5 75z" />
    <glyph glyph-name="093-timeline"
      unicode="&#xE05C;"
      horiz-adv-x="600" d="M575 400C575 372.5 552.5 350 525 350C520.5 350 516.25 350.5 512.25 351.75L423.25 263C424.5 259 425 254.5 425 250C425 222.5 402.5 200 375 200S325 222.5 325 250C325 254.5 325.5 259 326.75 263L263 326.75C259 325.5 254.5 325 250 325S241 325.5 237 326.75L123.25 212.75C124.5 208.75 125 204.5 125 200C125 172.5 102.5 150 75 150S25 172.5 25 200S47.5 250 75 250C79.5 250 83.75 249.5 87.75 248.25L201.75 362C200.5 366 200 370.5 200 375C200 402.5 222.5 425 250 425S300 402.5 300 375C300 370.5 299.5 366 298.25 362L362 298.25C366 299.5 370.5 300 375 300S384 299.5 388 298.25L476.75 387.25C475.5 391.25 475 395.5 475 400C475 427.5 497.5 450 525 450S575 427.5 575 400z" />
    <glyph glyph-name="094-unfold"
      unicode="&#xE05D;"
      horiz-adv-x="600" d="M150 450H200V150H150V450zM275 414.75L389.75 300L275 185.25L310.25 150L460.25 300L310.25 450L275 414.75z" />
  </font>
</defs>
</svg>
